<?xml version="1.0" ?><!DOCTYPE svg  PUBLIC '-//W3C//DTD SVG 1.1//EN'  'http://www.w3.org/Graphics/SVG/1.1/DTD/svg11.dtd'><svg height="67px" id="Layer_1" style="enable-background:new 0 0 67 67;" version="1.1" viewBox="0 0 67 67" width="67px" xml:space="preserve" xmlns="http://www.w3.org/2000/svg" xmlns:xlink="http://www.w3.org/1999/xlink"><path d="M44.164,46.268h5.104c0-14.633-11.904-26.545-26.535-26.545  v5.09C34.547,24.812,44.164,34.439,44.164,46.268z M35.143,46.27L35.143,46.27h5.11c0-9.664-7.862-17.525-17.521-17.525v5.088  c3.313,0,6.429,1.295,8.774,3.643C33.85,39.816,35.143,42.945,35.143,46.27z M26.266,46.277c1.957,0,3.538-1.572,3.538-3.521  c0-1.938-1.581-3.528-3.538-3.528c-1.949,0-3.533,1.59-3.533,3.528C22.732,44.705,24.316,46.277,26.266,46.277z M3,4h60v60H3V4z" style="fill-rule:evenodd;clip-rule:evenodd;"/></svg>